PathFileType	4	(X/Y/Z)	 s09c0202.trc
DataRate	CameraRate	NumFrames	NumMarkers	Units	OrigDataRate	OrigDataStartFrame	OrigNumFrames
200	200	4	50	mm	200	1001	2000
Frame#	Time	racr			lacr			c7			jug			rlel			rdr			llel			ldr			s2			lic			ric			lasi			rasi			rpsi			lpsi			rgt			lgt			rth1			rth2			rth3			rth4			rlfc			rmfc			rsh1			rsh2			rsh3			rsh4			rlmal			rmmal			rcal			rtoe			rmt5			lth1			lth2			lth4			lth3			llfc			lmfc			llmal			lmmal			lcal			lmt5			lsh1			lsh2			lsh3			lsh4			ltoe			SBIKE			LBIKE			RBIKE			
		X1	Y1	Z1	X2	Y2	Z2	X3	Y3	Z3	X4	Y4	Z4	X5	Y5	Z5	X6	Y6	Z6	X7	Y7	Z7	X8	Y8	Z8	X9	Y9	Z9	X10	Y10	Z10	X11	Y11	Z11	X12	Y12	Z12	X13	Y13	Z13	X14	Y14	Z14	X15	Y15	Z15	X16	Y16	Z16	X17	Y17	Z17	X18	Y18	Z18	X19	Y19	Z19	X20	Y20	Z20	X21	Y21	Z21	X22	Y22	Z22	X23	Y23	Z23	X24	Y24	Z24	X25	Y25	Z25	X26	Y26	Z26	X27	Y27	Z27	X28	Y28	Z28	X29	Y29	Z29	X30	Y30	Z30	X31	Y31	Z31	X32	Y32	Z32	X33	Y33	Z33	X34	Y34	Z34	X35	Y35	Z35	X36	Y36	Z36	X37	Y37	Z37	X38	Y38	Z38	X39	Y39	Z39	X40	Y40	Z40	X41	Y41	Z41	X42	Y42	Z42	X43	Y43	Z43	X44	Y44	Z44	X45	Y45	Z45	X46	Y46	Z46	X47	Y47	Z47	X48	Y48	Z48	X49	Y49	Z49	X50	Y50	Z50	
1001	5.0050	437.945492	1227.951145	-12.890456	540.623892	1237.590924	-359.824342	474.665238	1315.432448	-180.627896	463.924022	1182.182865	-194.885444	454.000996	986.910796	72.284837	674.887318	907.650232	-23.478428	453.861087	1035.878044	-542.838863	652.428845	911.041352	-460.225764	10.757243	1119.448486	-300.286422	165.909631	1106.592704	-425.668981	127.531324	1144.196984	-130.382263	199.981477	1055.134801	-391.560646	180.561065	1097.068729	-142.522144	25.875244	1156.824407	-241.185122	45.720155	1153.373173	-350.178418	138.906411	1039.711323	-84.004169	122.903487	960.687744	-457.875332	269.716662	1003.946380	-103.266896	355.177475	998.111502	-120.613083	427.877789	946.729500	-120.259788	361.770968	1018.089329	-151.191509	503.181402	871.669518	-144.849725	480.132363	838.538108	-243.205409	425.456276	808.334912	-108.411536	384.304278	728.309979	-108.513876	311.045633	681.700632	-96.727128	404.776887	708.793146	-135.341484	242.297189	601.942352	-83.780332	241.554891	607.051002	-160.971458	152.565570	598.938818	-114.091817	390.782505	481.696825	-131.152228	312.249042	500.393961	-63.110060	182.590606	844.307698	-449.894938	236.897130	780.019868	-437.919510	269.695304	795.227493	-424.424899	251.610992	691.407543	-424.501329	275.829349	600.638443	-403.513903	282.765253	587.574005	-304.776067	191.974489	244.970421	-410.364907	212.870795	252.942918	-340.940806	125.271558	216.635237	-372.049331	285.580072	147.658477	-431.693454	248.912042	504.994490	-427.095474	254.017399	419.382718	-417.817944	214.777870	339.674483	-417.193516	278.870220	416.851673	-386.489191	379.617917	151.998896	-363.547890	-65.669189	851.875259	-241.606916	20.927031	84.420852	-442.250447	21.039540	84.208481	-43.950778	
1002	5.0100	435.304079	1228.568558	-11.529746	542.240301	1235.207453	-356.884923	474.707575	1314.309595	-179.258085	463.139577	1181.177817	-192.779868	453.605643	987.264403	72.851735	674.314135	907.688397	-24.272621	456.578637	1035.976141	-542.753326	654.598784	910.810800	-460.440953	9.520646	1120.608494	-303.790548	167.061984	1105.648953	-426.228733	126.396802	1147.480587	-132.158377	200.619597	1054.622157	-391.902589	179.082592	1099.365997	-143.280849	25.493830	1158.614176	-243.812154	44.800511	1154.334222	-352.912159	137.499879	1044.311402	-84.638040	123.665432	960.558653	-458.330548	268.118286	1008.434541	-104.006370	353.561295	1002.676083	-121.297380	426.727754	952.025323	-119.678923	360.011020	1022.084755	-152.269459	502.797488	875.659593	-144.150256	479.926462	842.299690	-242.549855	425.729061	810.327565	-108.278100	386.860117	729.254720	-108.220992	314.764313	680.820020	-96.568127	407.851473	710.282218	-135.191513	247.747083	599.477967	-83.887270	246.579795	604.708843	-161.116253	158.383852	593.370245	-113.977210	400.906033	485.831736	-131.174661	322.177416	501.405764	-62.669431	183.336549	844.713177	-449.520454	237.914899	780.556487	-437.346242	270.616740	796.040169	-423.947625	252.902816	692.120789	-423.567312	276.634387	601.040216	-402.544553	284.241106	587.827543	-304.041066	184.081156	247.799417	-409.768386	205.618598	254.498426	-340.562199	116.808600	220.827278	-371.586154	275.321384	148.364849	-431.417984	248.416252	506.162012	-426.221413	251.095765	420.396212	-416.624133	209.736515	341.685089	-416.469214	275.583811	417.312187	-385.139155	369.469585	150.080039	-363.350613	-65.710079	851.863238	-241.594142	20.920467	84.429285	-442.248957	21.032670	84.227987	-43.956869	
1003	5.0150	433.159521	1228.923325	-10.531562	543.685639	1232.551175	-353.865095	474.849584	1313.117044	-178.176639	462.190769	1179.946828	-190.969767	453.098217	987.972678	73.420035	673.383785	907.842056	-24.983579	459.110698	1035.774738	-542.730998	656.889844	910.587778	-460.956922	8.935111	1121.884366	-306.183166	167.865743	1105.061179	-426.727339	125.284186	1150.649770	-133.750797	200.853990	1054.614100	-391.924037	177.403979	1101.543291	-144.114330	25.055501	1160.820374	-246.126692	43.982646	1155.770856	-354.234713	136.212004	1049.094723	-85.099880	124.239499	960.705925	-458.539680	266.352853	1012.215389	-104.487369	351.876457	1006.311961	-121.442956	424.934739	955.620133	-119.456972	358.352228	1025.297041	-152.679861	502.337797	878.373162	-143.529595	479.203996	845.396654	-241.699346	426.372601	811.145921	-108.314335	389.376723	729.051374	-107.832870	318.435577	678.870328	-96.370718	410.730953	710.646219	-135.001335	253.202454	595.915748	-83.854512	251.763202	601.403790	-161.145929	164.172524	586.456198	-113.717403	410.660353	489.150981	-131.248056	331.495688	501.222951	-62.491687	184.231417	845.217584	-448.863989	239.263048	781.596346	-436.404354	271.907047	797.132613	-423.520153	254.693260	693.219650	-422.345297	278.379665	601.870287	-401.393092	286.486257	588.538163	-303.103881	176.524455	251.295050	-409.200952	198.574208	256.742776	-340.137591	108.666313	225.904563	-370.977403	265.283089	149.665333	-431.117015	248.640450	507.709117	-425.000783	248.758712	421.909105	-415.289842	205.185060	344.479381	-415.667287	272.765626	418.183604	-383.553641	359.470727	148.725308	-363.169100	-65.729628	851.879896	-241.568083	20.910879	84.453304	-442.272641	20.984102	84.194672	-43.987196	
1004	5.0200	430.916089	1229.602120	-9.703396	545.013307	1229.911311	-351.217945	475.024707	1311.596703	-177.818876	461.209538	1178.710453	-189.291987	452.469263	988.715281	74.061005	672.547162	907.683644	-26.056559	461.556865	1035.383289	-542.762372	658.996374	910.396964	-461.581122	8.348463	1125.303770	-306.167197	168.487433	1104.849971	-427.134088	124.511189	1153.935085	-134.809104	201.242505	1054.612980	-391.865339	175.922363	1103.933268	-145.054591	24.617964	1162.992145	-248.010643	46.173866	1156.082898	-356.069743	135.026605	1053.537617	-85.528101	124.594011	961.008192	-458.429025	264.549981	1015.099555	-104.527368	350.175033	1008.939461	-120.913528	422.862331	957.973211	-118.035733	356.751263	1027.618167	-152.485231	501.627835	879.990936	-142.531452	478.239757	847.703184	-240.638443	426.930502	810.648202	-106.844373	391.867299	727.629311	-107.184938	322.097423	675.741482	-96.016459	413.526459	710.012087	-134.823859	258.732057	591.255532	-83.798530	256.961020	597.022075	-161.026957	169.722465	578.589045	-113.682243	420.159757	491.769030	-131.281035	340.611674	500.227957	-62.269400	185.334783	845.912132	-447.942929	240.822752	782.729693	-435.357181	273.485357	798.543148	-423.036307	257.016646	694.571901	-420.814165	280.933124	603.143580	-400.060274	289.185843	589.609451	-302.101370	169.400570	255.477287	-408.617856	191.776710	259.691453	-339.665107	100.695049	231.673572	-370.615861	255.454198	151.670199	-430.862402	249.584387	509.755140	-423.722661	246.953114	424.033094	-413.838316	201.086241	347.889414	-414.877081	270.483314	419.481987	-381.911762	349.474541	147.979234	-363.002078	-65.725354	851.894721	-241.532438	20.887345	84.512045	-442.304895	20.952549	84.199261	-44.033757	
